<svg width="142" height="128" viewBox="0 0 142 128" fill="none" xmlns="http://www.w3.org/2000/svg">
<path d="M139.6 64.4L134.6 71.2C132.6 72 130.667 72.4 128.8 72.4C127.733 72.4 126.533 72.2 125.2 71.8C124 71.2667 122.867 70.6 121.8 69.8C120.733 68.8667 119.8 67.7333 119 66.4C118.333 65.0667 118 63.5333 118 61.8C118 59.8 118.2 57.7333 118.6 55.6C119 53.4667 119.733 51.1333 120.8 48.6C122 46.0667 123.6 43.4 125.6 40.6C127.733 37.8 130.467 34.7333 133.8 31.4C134.2 31.4 134.533 31.4 134.8 31.4C135.2 31.2667 135.533 31.2 135.8 31.2C138.067 31.2 139.333 32.2 139.6 34.2C139.467 34.7333 139.067 35.5333 138.4 36.6C137.867 37.6667 137.2 38.7333 136.4 39.8C135.733 40.8667 135.067 41.8667 134.4 42.8C133.867 43.6 133.533 44.0667 133.4 44.2C131.933 46.8667 130.933 49.8667 130.4 53.2H131.4C132.2 53.2 133 53.3333 133.8 53.6C134.733 53.7333 135.6 54.2 136.4 55C137.2 55.8 137.867 56.9333 138.4 58.4C139.067 59.8667 139.467 61.8667 139.6 64.4ZM111.6 64.4L106.6 71.2C104.6 72 102.667 72.4 100.8 72.4C99.7333 72.4 98.5333 72.2 97.2 71.8C96 71.2667 94.8667 70.6 93.8 69.8C92.7333 68.8667 91.8 67.7333 91 66.4C90.3333 65.0667 90 63.5333 90 61.8C90 59.8 90.2 57.7333 90.6 55.6C91 53.4667 91.7333 51.1333 92.8 48.6C94 46.0667 95.6 43.4 97.6 40.6C99.7333 37.8 102.467 34.7333 105.8 31.4C106.2 31.4 106.533 31.4 106.8 31.4C107.2 31.2667 107.533 31.2 107.8 31.2C110.067 31.2 111.333 32.2 111.6 34.2C111.467 34.7333 111.067 35.5333 110.4 36.6C109.867 37.6667 109.2 38.7333 108.4 39.8C107.733 40.8667 107.067 41.8667 106.4 42.8C105.867 43.6 105.533 44.0667 105.4 44.2C103.933 46.8667 102.933 49.8667 102.4 53.2H103.4C104.2 53.2 105 53.3333 105.8 53.6C106.733 53.7333 107.6 54.2 108.4 55C109.2 55.8 109.867 56.9333 110.4 58.4C111.067 59.8667 111.467 61.8667 111.6 64.4Z" fill="#DBDBDB"/>
</svg>
